<?xml version="1.0" encoding="iso-8859-1"?>
<!-- Generator: Adobe Illustrator 19.0.0, SVG Export Plug-In . SVG Version: 6.00 Build 0)  -->
<svg fill='gray' version="1.1" id="Layer_1" xmlns="http://www.w3.org/2000/svg" xmlns:xlink="http://www.w3.org/1999/xlink" x="0px" y="0px"
	 viewBox="0 0 512 512" style="enable-background:new 0 0 512 512;" xml:space="preserve">
<g>
	<g>
		<path d="M495.967,256c0,56.876-46.272,103.148-103.148,103.148c-16.8,0-32.816-3.908-47.604-11.616
			c-3.924-2.046-8.768-0.523-10.814,3.404c-2.047,3.926-0.523,8.768,3.404,10.814c16.858,8.786,35.882,13.431,55.014,13.431
			C458.535,375.182,512,321.717,512,256H495.967z"/>
	</g>
</g>
<g>
	<g>
		<path d="M310.307,342.001c3.194,3.065,8.269,2.962,11.335-0.233L310.307,342.001z"/>
	</g>
</g>
<g>
	<g>
		<path d="M392.818,136.818c-65.717,0-119.182,53.465-119.182,119.182c0,32.765,13.023,63.307,36.671,86.001
			c3.194,3.065,8.269,2.962,11.335-0.233c3.066-3.194,2.962-8.269-0.233-11.335C300.942,310.792,289.67,284.358,289.67,256
			c0-56.876,46.272-103.148,103.148-103.148c56.876,0,103.148,46.272,103.148,103.148s-46.272,103.148-103.148,103.148
			c-16.8,0-32.816-3.908-47.604-11.616c-3.924-2.046-8.768-0.523-10.814,3.404c-2.047,3.926-0.523,8.768,3.404,10.814
			c16.858,8.786,35.882,13.431,55.014,13.431C458.535,375.182,512,321.717,512,256S458.535,136.818,392.818,136.818z"/>
	</g>
</g>
<g>
	<g>
		<path d="M213.123,182.649c-2.727-3.487-7.766-4.104-11.253-1.378c-3.488,2.727-4.105,7.766-1.378,11.253
			c14.287,18.272,21.837,40.221,21.837,63.475c0,56.876-46.272,103.148-103.148,103.148c-56.876,0-103.148-46.272-103.148-103.148
			s46.272-103.148,103.148-103.148c24.046,0,47.452,8.452,65.907,23.798c3.404,2.833,8.46,2.367,11.29-1.038
			c2.83-3.404,2.365-8.459-1.038-11.29c-21.329-17.736-48.376-27.504-76.159-27.504C53.465,136.818,0,190.283,0,256
			s53.465,119.182,119.182,119.182S238.363,321.717,238.363,256C238.363,229.132,229.636,203.768,213.123,182.649z"/>
	</g>
</g>
<g>
	<g>
		<path d="M392.818,171.023c-4.427,0-8.017,3.589-8.017,8.017s3.589,8.017,8.017,8.017c38.015,0,68.944,30.928,68.944,68.944
			c0,4.427,3.589,8.017,8.017,8.017c4.427,0,8.017-3.589,8.017-8.017C477.795,209.144,439.674,171.023,392.818,171.023z"/>
	</g>
</g>
<g>
	<g>
		<path d="M119.182,171.023c-4.427,0-8.017,3.589-8.017,8.017s3.589,8.017,8.017,8.017c38.015,0,68.944,30.928,68.944,68.944
			c0,4.427,3.589,8.017,8.017,8.017s8.017-3.589,8.017-8.017C204.159,209.144,166.038,171.023,119.182,171.023z"/>
	</g>
</g>
<g>
</g>
<g>
</g>
<g>
</g>
<g>
</g>
<g>
</g>
<g>
</g>
<g>
</g>
<g>
</g>
<g>
</g>
<g>
</g>
<g>
</g>
<g>
</g>
<g>
</g>
<g>
</g>
<g>
</g>
</svg>
